<svg xmlns="http://www.w3.org/2000/svg" xmlns:xlink="http://www.w3.org/1999/xlink" width="500" zoomAndPan="magnify" viewBox="0 0 375 374.999991" height="500" preserveAspectRatio="xMidYMid meet" version="1.0"><defs><g/><clipPath id="b778298e86"><path d="M 51.570312 51.570312 L 323.070312 51.570312 L 323.070312 323.070312 L 51.570312 323.070312 Z M 51.570312 51.570312 " clip-rule="nonzero"/></clipPath><clipPath id="23ee6a798e"><path d="M 157 98.585938 L 247 98.585938 L 247 210 L 157 210 Z M 157 98.585938 " clip-rule="nonzero"/></clipPath><clipPath id="4a34fdaa94"><path d="M 126 118 L 187 118 L 187 211.835938 L 126 211.835938 Z M 126 118 " clip-rule="nonzero"/></clipPath><clipPath id="1af5125469"><path d="M 132 98.585938 L 229 98.585938 L 229 150 L 132 150 Z M 132 98.585938 " clip-rule="nonzero"/></clipPath></defs><rect x="-37.5" width="450" fill="#ffffff" y="-37.499999" height="449.999989" fill-opacity="1"/><rect x="-37.5" width="450" fill="#058789" y="-37.499999" height="449.999989" fill-opacity="1"/><g clip-path="url(#b778298e86)"><path fill="#ffffff" d="M 323.421875 187.496094 C 323.421875 189.722656 323.367188 191.945312 323.261719 194.167969 C 323.152344 196.390625 322.988281 198.605469 322.769531 200.820312 C 322.550781 203.035156 322.277344 205.242188 321.953125 207.441406 C 321.625 209.644531 321.246094 211.832031 320.8125 214.015625 C 320.378906 216.199219 319.890625 218.367188 319.351562 220.523438 C 318.808594 222.683594 318.214844 224.828125 317.570312 226.953125 C 316.925781 229.082031 316.226562 231.195312 315.476562 233.289062 C 314.726562 235.382812 313.929688 237.460938 313.078125 239.515625 C 312.226562 241.570312 311.324219 243.601562 310.375 245.613281 C 309.421875 247.625 308.421875 249.609375 307.375 251.574219 C 306.324219 253.535156 305.230469 255.46875 304.085938 257.378906 C 302.941406 259.285156 301.75 261.164062 300.515625 263.015625 C 299.28125 264.863281 298 266.683594 296.675781 268.46875 C 295.347656 270.253906 293.980469 272.007812 292.570312 273.726562 C 291.160156 275.449219 289.707031 277.132812 288.210938 278.78125 C 286.71875 280.429688 285.183594 282.039062 283.613281 283.613281 C 282.039062 285.183594 280.429688 286.71875 278.78125 288.210938 C 277.132812 289.707031 275.449219 291.160156 273.726562 292.570312 C 272.007812 293.980469 270.253906 295.347656 268.46875 296.675781 C 266.683594 298 264.863281 299.28125 263.015625 300.515625 C 261.164062 301.75 259.285156 302.941406 257.378906 304.085938 C 255.46875 305.230469 253.535156 306.324219 251.574219 307.375 C 249.609375 308.421875 247.625 309.421875 245.613281 310.375 C 243.601562 311.324219 241.570312 312.226562 239.515625 313.078125 C 237.460938 313.929688 235.382812 314.726562 233.289062 315.476562 C 231.195312 316.226562 229.082031 316.925781 226.953125 317.570312 C 224.828125 318.214844 222.683594 318.808594 220.523438 319.351562 C 218.367188 319.890625 216.199219 320.378906 214.015625 320.8125 C 211.832031 321.246094 209.644531 321.625 207.441406 321.953125 C 205.242188 322.277344 203.035156 322.550781 200.820312 322.769531 C 198.605469 322.988281 196.390625 323.152344 194.167969 323.261719 C 191.945312 323.367188 189.722656 323.421875 187.496094 323.421875 C 185.273438 323.421875 183.050781 323.367188 180.828125 323.261719 C 178.605469 323.152344 176.386719 322.988281 174.175781 322.769531 C 171.960938 322.550781 169.753906 322.277344 167.554688 321.953125 C 165.351562 321.625 163.160156 321.246094 160.980469 320.8125 C 158.796875 320.378906 156.628906 319.890625 154.46875 319.351562 C 152.3125 318.808594 150.167969 318.214844 148.039062 317.570312 C 145.910156 316.925781 143.800781 316.226562 141.707031 315.476562 C 139.609375 314.726562 137.535156 313.929688 135.480469 313.078125 C 133.425781 312.226562 131.394531 311.324219 129.382812 310.375 C 127.371094 309.421875 125.382812 308.421875 123.421875 307.375 C 121.460938 306.324219 119.527344 305.230469 117.617188 304.085938 C 115.710938 302.941406 113.832031 301.75 111.980469 300.515625 C 110.132812 299.28125 108.3125 298 106.527344 296.675781 C 104.738281 295.347656 102.988281 293.980469 101.265625 292.570312 C 99.546875 291.160156 97.863281 289.707031 96.214844 288.210938 C 94.566406 286.71875 92.957031 285.183594 91.382812 283.613281 C 89.8125 282.039062 88.277344 280.429688 86.785156 278.78125 C 85.289062 277.132812 83.835938 275.449219 82.425781 273.726562 C 81.015625 272.007812 79.644531 270.253906 78.320312 268.46875 C 76.996094 266.683594 75.714844 264.863281 74.480469 263.015625 C 73.242188 261.164062 72.054688 259.285156 70.910156 257.378906 C 69.765625 255.46875 68.671875 253.535156 67.621094 251.574219 C 66.574219 249.609375 65.574219 247.625 64.621094 245.613281 C 63.671875 243.601562 62.769531 241.570312 61.917969 239.515625 C 61.066406 237.460938 60.265625 235.382812 59.519531 233.289062 C 58.769531 231.195312 58.070312 229.082031 57.425781 226.953125 C 56.777344 224.828125 56.1875 222.683594 55.644531 220.523438 C 55.105469 218.367188 54.617188 216.199219 54.183594 214.015625 C 53.75 211.832031 53.371094 209.644531 53.042969 207.441406 C 52.71875 205.242188 52.445312 203.035156 52.226562 200.820312 C 52.007812 198.605469 51.84375 196.390625 51.734375 194.167969 C 51.625 191.945312 51.570312 189.722656 51.570312 187.496094 C 51.570312 185.273438 51.625 183.050781 51.734375 180.828125 C 51.84375 178.605469 52.007812 176.386719 52.226562 174.175781 C 52.445312 171.960938 52.71875 169.753906 53.042969 167.554688 C 53.371094 165.351562 53.75 163.160156 54.183594 160.980469 C 54.617188 158.796875 55.105469 156.628906 55.644531 154.46875 C 56.1875 152.3125 56.777344 150.167969 57.425781 148.039062 C 58.070312 145.910156 58.769531 143.800781 59.519531 141.707031 C 60.265625 139.609375 61.066406 137.535156 61.917969 135.480469 C 62.769531 133.425781 63.671875 131.394531 64.621094 129.382812 C 65.574219 127.371094 66.574219 125.382812 67.621094 123.421875 C 68.671875 121.460938 69.765625 119.527344 70.910156 117.617188 C 72.054688 115.710938 73.242188 113.832031 74.480469 111.980469 C 75.714844 110.132812 76.996094 108.3125 78.320312 106.527344 C 79.644531 104.738281 81.015625 102.988281 82.425781 101.265625 C 83.835938 99.546875 85.289062 97.863281 86.785156 96.214844 C 88.277344 94.566406 89.8125 92.957031 91.382812 91.382812 C 92.957031 89.8125 94.566406 88.277344 96.214844 86.785156 C 97.863281 85.289062 99.546875 83.835938 101.265625 82.425781 C 102.988281 81.015625 104.738281 79.644531 106.527344 78.320312 C 108.3125 76.996094 110.132812 75.714844 111.980469 74.480469 C 113.832031 73.242188 115.710938 72.054688 117.617188 70.910156 C 119.527344 69.765625 121.460938 68.671875 123.421875 67.621094 C 125.382812 66.574219 127.371094 65.574219 129.382812 64.621094 C 131.394531 63.671875 133.425781 62.769531 135.480469 61.917969 C 137.535156 61.066406 139.609375 60.265625 141.707031 59.519531 C 143.800781 58.769531 145.910156 58.070312 148.039062 57.425781 C 150.167969 56.777344 152.3125 56.1875 154.46875 55.644531 C 156.628906 55.105469 158.796875 54.617188 160.980469 54.183594 C 163.160156 53.75 165.351562 53.371094 167.554688 53.042969 C 169.753906 52.71875 171.960938 52.445312 174.175781 52.226562 C 176.386719 52.007812 178.605469 51.84375 180.828125 51.734375 C 183.050781 51.625 185.273438 51.570312 187.496094 51.570312 C 189.722656 51.570312 191.945312 51.625 194.167969 51.734375 C 196.390625 51.84375 198.605469 52.007812 200.820312 52.226562 C 203.035156 52.445312 205.242188 52.71875 207.441406 53.042969 C 209.644531 53.371094 211.832031 53.75 214.015625 54.183594 C 216.199219 54.617188 218.367188 55.105469 220.523438 55.644531 C 222.683594 56.1875 224.828125 56.777344 226.953125 57.425781 C 229.082031 58.070312 231.195312 58.769531 233.289062 59.519531 C 235.382812 60.265625 237.460938 61.066406 239.515625 61.917969 C 241.570312 62.769531 243.601562 63.671875 245.613281 64.621094 C 247.625 65.574219 249.609375 66.574219 251.574219 67.621094 C 253.535156 68.671875 255.46875 69.765625 257.378906 70.910156 C 259.285156 72.054688 261.164062 73.242188 263.015625 74.480469 C 264.863281 75.714844 266.683594 76.996094 268.46875 78.320312 C 270.253906 79.644531 272.007812 81.015625 273.726562 82.425781 C 275.449219 83.835938 277.132812 85.289062 278.78125 86.785156 C 280.429688 88.277344 282.039062 89.8125 283.613281 91.382812 C 285.183594 92.957031 286.71875 94.566406 288.210938 96.214844 C 289.707031 97.863281 291.160156 99.546875 292.570312 101.265625 C 293.980469 102.988281 295.347656 104.738281 296.675781 106.527344 C 298 108.3125 299.28125 110.132812 300.515625 111.980469 C 301.75 113.832031 302.941406 115.710938 304.085938 117.617188 C 305.230469 119.527344 306.324219 121.460938 307.375 123.421875 C 308.421875 125.382812 309.421875 127.371094 310.375 129.382812 C 311.324219 131.394531 312.226562 133.425781 313.078125 135.480469 C 313.929688 137.535156 314.726562 139.609375 315.476562 141.707031 C 316.226562 143.800781 316.925781 145.910156 317.570312 148.039062 C 318.214844 150.167969 318.808594 152.3125 319.351562 154.46875 C 319.890625 156.628906 320.378906 158.796875 320.8125 160.980469 C 321.246094 163.160156 321.625 165.351562 321.953125 167.554688 C 322.277344 169.753906 322.550781 171.960938 322.769531 174.175781 C 322.988281 176.386719 323.152344 178.605469 323.261719 180.828125 C 323.367188 183.050781 323.421875 185.273438 323.421875 187.496094 Z M 323.421875 187.496094 " fill-opacity="1" fill-rule="nonzero"/></g><path fill="#058789" d="M 187.496094 310.457031 C 119.636719 310.457031 64.535156 255.359375 64.535156 187.496094 C 64.535156 119.636719 119.636719 64.535156 187.496094 64.535156 C 255.359375 64.535156 310.457031 119.636719 310.457031 187.496094 C 310.457031 255.359375 255.359375 310.457031 187.496094 310.457031 Z M 187.496094 67.574219 C 121.257812 67.574219 67.574219 121.257812 67.574219 187.496094 C 67.574219 253.738281 121.460938 307.421875 187.496094 307.421875 C 253.738281 307.421875 307.421875 253.535156 307.421875 187.496094 C 307.421875 121.257812 253.738281 67.574219 187.496094 67.574219 Z M 187.496094 67.574219 " fill-opacity="1" fill-rule="nonzero"/><path fill="#e03f3e" d="M 210.976562 147.714844 C 216.871094 147.714844 221.65625 142.929688 221.65625 137.03125 C 221.65625 131.128906 216.871094 126.34375 210.976562 126.34375 C 205.070312 126.34375 200.292969 131.128906 200.292969 137.03125 C 200.292969 142.929688 205.070312 147.714844 210.976562 147.714844 Z M 210.976562 147.714844 " fill-opacity="1" fill-rule="nonzero"/><g clip-path="url(#23ee6a798e)"><path fill="#e03f3e" d="M 211.714844 98.925781 C 209.855469 98.859375 207.980469 98.921875 206.117188 99.125 C 231.875 104.929688 231.445312 131.183594 227.863281 141.09375 C 227.84375 141.152344 227.820312 141.214844 227.800781 141.269531 C 226.238281 145.53125 223.671875 150.136719 219.664062 152.550781 C 214.265625 155.792969 207.195312 153.964844 202.386719 150.507812 C 189.917969 141.546875 185.898438 122.429688 168.269531 120.515625 C 161.984375 119.835938 157.328125 122.644531 157.328125 122.644531 C 157.328125 122.644531 174.183594 128.882812 186.429688 155.21875 C 195.507812 174.75 193.605469 196.835938 191.308594 209.453125 C 203.535156 202.9375 215.882812 195.847656 225.558594 185.894531 C 235.5625 175.605469 243.152344 162.417969 245.566406 148.171875 C 249.402344 125.566406 236.828125 99.847656 211.714844 98.925781 Z M 211.714844 98.925781 " fill-opacity="1" fill-rule="nonzero"/></g><path fill="#058789" d="M 167.8125 185.066406 C 163.898438 183.152344 160.722656 180.941406 156.210938 176.71875 C 161.796875 186.957031 173.375 194.632812 186.429688 198.671875 C 186.429688 194.75 185.535156 192.835938 181.910156 190.765625 C 177.507812 188.246094 172.355469 187.296875 167.8125 185.066406 Z M 167.8125 185.066406 " fill-opacity="1" fill-rule="nonzero"/><path fill="#058789" d="M 158.757812 173.632812 C 164.3125 180.515625 172.9375 183.898438 182.476562 186.351562 C 182.476562 181.058594 176.964844 179.25 173.566406 178.84375 C 166.066406 177.941406 158.757812 173.632812 158.757812 173.632812 Z M 158.757812 173.632812 " fill-opacity="1" fill-rule="nonzero"/><g clip-path="url(#4a34fdaa94)"><path fill="#058789" d="M 167.261719 192.664062 C 160.082031 187.683594 155.417969 183.140625 153.152344 174.707031 C 152.417969 171.976562 152.183594 168.667969 154.234375 166.714844 C 155.96875 165.058594 158.714844 165.074219 161.050781 165.632812 C 163.386719 166.195312 165.652344 167.210938 168.054688 167.226562 C 170.453125 167.242188 174.019531 166.179688 174.300781 163.789062 C 168.789062 157.75 161.273438 153.570312 153.234375 152.070312 C 151.257812 151.699219 149.335938 151.347656 147.496094 150.832031 C 144.621094 150.042969 141.953125 148.863281 139.597656 146.628906 C 136.363281 143.558594 134.324219 139.464844 133.058594 135.242188 C 131.441406 129.851562 130.996094 124.035156 131.683594 118.398438 C 127.148438 127.269531 125.574219 138.03125 127.292969 148.171875 C 129.707031 162.417969 137.296875 175.605469 147.300781 185.894531 C 158.265625 197.175781 172.671875 204.777344 186.429688 212.039062 C 188.484375 200.769531 178.976562 200.769531 167.261719 192.664062 Z M 167.261719 192.664062 " fill-opacity="1" fill-rule="nonzero"/></g><g clip-path="url(#1af5125469)"><path fill="#058789" d="M 224.578125 113.636719 C 220.808594 106.757812 214.503906 102.28125 205.84375 100.328125 L 202.804688 99.644531 C 196.507812 100.921875 190.609375 103.890625 186.429688 108.925781 C 180.304688 101.546875 170.480469 98.585938 161.144531 98.925781 C 148.519531 99.386719 139.070312 106.113281 133.273438 115.5625 L 132.910156 118.546875 C 132.234375 124.085938 132.695312 129.734375 134.242188 134.886719 C 135.621094 139.484375 137.707031 143.132812 140.449219 145.734375 C 142.207031 147.402344 144.257812 148.546875 147.003906 149.398438 C 146.261719 147.175781 145.644531 144.917969 145.238281 142.609375 C 144.050781 135.96875 144.648438 128.789062 148.199219 123.050781 C 152.121094 116.710938 159.613281 112.753906 167.066406 113.085938 C 174.511719 113.417969 183.089844 117.914062 186.429688 124.578125 C 189.769531 117.914062 198.347656 113.417969 205.792969 113.085938 C 213.246094 112.753906 220.738281 116.710938 224.660156 123.050781 C 226.769531 126.460938 227.832031 130.378906 228.105469 134.386719 C 228.832031 128.355469 228.300781 120.4375 224.578125 113.636719 Z M 224.578125 113.636719 " fill-opacity="1" fill-rule="nonzero"/></g><g fill="#058789" fill-opacity="1"><g transform="translate(84.876196, 239.781752)"><g><path d="M 11.421875 -5.65625 L 8.140625 -5.65625 L 8.140625 0 L 2.125 0 L 2.125 -21.28125 L 11.859375 -21.28125 C 13.773438 -21.28125 15.441406 -20.957031 16.859375 -20.3125 C 18.285156 -19.675781 19.378906 -18.765625 20.140625 -17.578125 C 20.910156 -16.390625 21.296875 -15 21.296875 -13.40625 C 21.296875 -11.863281 20.9375 -10.519531 20.21875 -9.375 C 19.5 -8.226562 18.472656 -7.332031 17.140625 -6.6875 L 21.734375 0 L 15.28125 0 Z M 15.21875 -13.40625 C 15.21875 -14.394531 14.90625 -15.160156 14.28125 -15.703125 C 13.65625 -16.253906 12.722656 -16.53125 11.484375 -16.53125 L 8.140625 -16.53125 L 8.140625 -10.296875 L 11.484375 -10.296875 C 12.722656 -10.296875 13.65625 -10.5625 14.28125 -11.09375 C 14.90625 -11.632812 15.21875 -12.40625 15.21875 -13.40625 Z M 15.21875 -13.40625 "/></g></g></g><g fill="#058789" fill-opacity="1"><g transform="translate(107.362382, 239.781752)"><g><path d="M 11.9375 0.421875 C 8.78125 0.421875 6.320312 -0.4375 4.5625 -2.15625 C 2.8125 -3.875 1.9375 -6.316406 1.9375 -9.484375 L 1.9375 -21.28125 L 7.96875 -21.28125 L 7.96875 -9.671875 C 7.96875 -6.265625 9.3125 -4.5625 12 -4.5625 C 14.675781 -4.5625 16.015625 -6.265625 16.015625 -9.671875 L 16.015625 -21.28125 L 21.9375 -21.28125 L 21.9375 -9.484375 C 21.9375 -6.316406 21.0625 -3.875 19.3125 -2.15625 C 17.5625 -0.4375 15.101562 0.421875 11.9375 0.421875 Z M 11.9375 0.421875 "/></g></g></g><g fill="#058789" fill-opacity="1"><g transform="translate(131.24636, 239.781752)"><g><path d="M 16.375 -4.140625 L 7.390625 -4.140625 L 5.71875 0 L -0.421875 0 L 8.96875 -21.28125 L 14.890625 -21.28125 L 24.3125 0 L 18.046875 0 Z M 14.625 -8.5625 L 11.875 -15.375 L 9.140625 -8.5625 Z M 14.625 -8.5625 "/></g></g></g><g fill="#058789" fill-opacity="1"><g transform="translate(155.130338, 239.781752)"><g><path d="M 22.375 -21.28125 L 22.375 0 L 17.40625 0 L 8.015625 -11.328125 L 8.015625 0 L 2.125 0 L 2.125 -21.28125 L 7.078125 -21.28125 L 16.46875 -9.9375 L 16.46875 -21.28125 Z M 22.375 -21.28125 "/></g></g></g><g fill="#058789" fill-opacity="1"><g transform="translate(179.622054, 239.781752)"><g><path d="M 16.375 -11.09375 L 21.703125 -11.09375 L 21.703125 -2.28125 C 20.484375 -1.40625 19.082031 -0.734375 17.5 -0.265625 C 15.925781 0.191406 14.347656 0.421875 12.765625 0.421875 C 10.535156 0.421875 8.53125 -0.046875 6.75 -0.984375 C 4.96875 -1.929688 3.566406 -3.242188 2.546875 -4.921875 C 1.535156 -6.609375 1.03125 -8.515625 1.03125 -10.640625 C 1.03125 -12.765625 1.535156 -14.664062 2.546875 -16.34375 C 3.566406 -18.03125 4.976562 -19.34375 6.78125 -20.28125 C 8.582031 -21.226562 10.617188 -21.703125 12.890625 -21.703125 C 14.867188 -21.703125 16.648438 -21.363281 18.234375 -20.6875 C 19.816406 -20.019531 21.132812 -19.0625 22.1875 -17.8125 L 18.359375 -14.34375 C 16.921875 -15.925781 15.195312 -16.71875 13.1875 -16.71875 C 11.363281 -16.71875 9.894531 -16.164062 8.78125 -15.0625 C 7.664062 -13.957031 7.109375 -12.484375 7.109375 -10.640625 C 7.109375 -9.460938 7.359375 -8.410156 7.859375 -7.484375 C 8.367188 -6.566406 9.078125 -5.847656 9.984375 -5.328125 C 10.898438 -4.816406 11.945312 -4.5625 13.125 -4.5625 C 14.28125 -4.5625 15.363281 -4.789062 16.375 -5.25 Z M 16.375 -11.09375 "/></g></g></g><g fill="#058789" fill-opacity="1"><g transform="translate(203.019842, 239.781752)"><g><path d="M 6.78125 0.421875 C 5.21875 0.421875 3.796875 0.15625 2.515625 -0.375 C 1.242188 -0.914062 0.203125 -1.691406 -0.609375 -2.703125 L 2.671875 -6.59375 C 3.804688 -5.113281 5.035156 -4.375 6.359375 -4.375 C 7.222656 -4.375 7.882812 -4.632812 8.34375 -5.15625 C 8.800781 -5.6875 9.03125 -6.457031 9.03125 -7.46875 L 9.03125 -16.625 L 1.671875 -16.625 L 1.671875 -21.28125 L 14.984375 -21.28125 L 14.984375 -7.84375 C 14.984375 -5.082031 14.285156 -3.015625 12.890625 -1.640625 C 11.503906 -0.265625 9.46875 0.421875 6.78125 0.421875 Z M 6.78125 0.421875 "/></g></g></g><g fill="#058789" fill-opacity="1"><g transform="translate(219.945263, 239.781752)"><g><path d="M 2.125 -21.28125 L 8.140625 -21.28125 L 8.140625 0 L 2.125 0 Z M 2.125 -21.28125 "/></g></g></g><g fill="#058789" fill-opacity="1"><g transform="translate(230.246364, 239.781752)"><g><path d="M 35.5 -21.28125 L 28.59375 0 L 22.15625 0 L 18.078125 -12.953125 L 13.828125 0 L 7.390625 0 L 0.484375 -21.28125 L 6.6875 -21.28125 L 10.96875 -7.6875 L 15.46875 -21.28125 L 21 -21.28125 L 25.28125 -7.5625 L 29.75 -21.28125 Z M 35.5 -21.28125 "/></g></g></g><g fill="#058789" fill-opacity="1"><g transform="translate(266.224275, 239.781752)"><g><path d="M 16.375 -4.140625 L 7.390625 -4.140625 L 5.71875 0 L -0.421875 0 L 8.96875 -21.28125 L 14.890625 -21.28125 L 24.3125 0 L 18.046875 0 Z M 14.625 -8.5625 L 11.875 -15.375 L 9.140625 -8.5625 Z M 14.625 -8.5625 "/></g></g></g><g fill="#000000" fill-opacity="1"><g transform="translate(105.434592, 256.88732)"><g><path d="M 0.921875 0 L 0.921875 -6.375 L 1.671875 -6.375 L 4.1875 -2.59375 L 6.671875 -6.375 L 7.421875 -6.375 L 7.421875 0 L 6.609375 0 L 6.609375 -4.875 L 4.5 -1.6875 L 3.84375 -1.6875 L 1.734375 -4.875 L 1.734375 0 Z M 0.921875 0 "/></g></g></g><g fill="#000000" fill-opacity="1"><g transform="translate(121.08237, 256.88732)"><g><path d="M 0.921875 0 L 0.921875 -6.375 L 4.796875 -6.375 L 4.796875 -5.625 L 1.734375 -5.625 L 1.734375 -3.609375 L 4.578125 -3.609375 L 4.578125 -2.875 L 1.734375 -2.875 L 1.734375 -0.75 L 4.90625 -0.75 L 4.90625 0 Z M 0.921875 0 "/></g></g></g><g fill="#000000" fill-opacity="1"><g transform="translate(133.876635, 256.88732)"><g><path d="M 0.921875 0 L 0.921875 -6.375 L 1.6875 -6.375 L 5.203125 -1.390625 L 5.203125 -6.375 L 6 -6.375 L 6 0 L 5.25 0 L 1.71875 -4.984375 L 1.71875 0 Z M 0.921875 0 "/></g></g></g><g fill="#000000" fill-opacity="1"><g transform="translate(148.102216, 256.88732)"><g><path d="M 2.46875 0 L 2.46875 -5.609375 L 0.3125 -5.609375 L 0.3125 -6.375 L 5.421875 -6.375 L 5.421875 -5.609375 L 3.265625 -5.609375 L 3.265625 0 Z M 2.46875 0 "/></g></g></g><g fill="#000000" fill-opacity="1"><g transform="translate(161.14263, 256.88732)"><g><path d="M 0.15625 0 L 2.78125 -6.375 L 3.53125 -6.375 L 6.15625 0 L 5.296875 0 L 4.703125 -1.453125 L 1.59375 -1.453125 L 1.015625 0 Z M 1.90625 -2.203125 L 4.40625 -2.203125 L 3.15625 -5.25 Z M 1.90625 -2.203125 "/></g></g></g><g fill="#000000" fill-opacity="1"><g transform="translate(174.748273, 256.88732)"><g><path d="M 0.921875 0 L 0.921875 -6.375 L 1.734375 -6.375 L 1.734375 -0.765625 L 4.828125 -0.765625 L 4.828125 0 Z M 0.921875 0 "/></g></g></g><g fill="#000000" fill-opacity="1"><g transform="translate(187.159639, 256.88732)"><g/></g></g><g fill="#000000" fill-opacity="1"><g transform="translate(196.717492, 256.88732)"><g><path d="M 5.109375 0 L 5.109375 -2.875 L 1.734375 -2.875 L 1.734375 0 L 0.921875 0 L 0.921875 -6.375 L 1.734375 -6.375 L 1.734375 -3.640625 L 5.109375 -3.640625 L 5.109375 -6.375 L 5.90625 -6.375 L 5.90625 0 Z M 5.109375 0 "/></g></g></g><g fill="#000000" fill-opacity="1"><g transform="translate(210.861025, 256.88732)"><g><path d="M 0.921875 0 L 0.921875 -6.375 L 4.796875 -6.375 L 4.796875 -5.625 L 1.734375 -5.625 L 1.734375 -3.609375 L 4.578125 -3.609375 L 4.578125 -2.875 L 1.734375 -2.875 L 1.734375 -0.75 L 4.90625 -0.75 L 4.90625 0 Z M 0.921875 0 "/></g></g></g><g fill="#000000" fill-opacity="1"><g transform="translate(223.655288, 256.88732)"><g><path d="M 0.15625 0 L 2.78125 -6.375 L 3.53125 -6.375 L 6.15625 0 L 5.296875 0 L 4.703125 -1.453125 L 1.59375 -1.453125 L 1.015625 0 Z M 1.90625 -2.203125 L 4.40625 -2.203125 L 3.15625 -5.25 Z M 1.90625 -2.203125 "/></g></g></g><g fill="#000000" fill-opacity="1"><g transform="translate(237.260936, 256.88732)"><g><path d="M 0.921875 0 L 0.921875 -6.375 L 1.734375 -6.375 L 1.734375 -0.765625 L 4.828125 -0.765625 L 4.828125 0 Z M 0.921875 0 "/></g></g></g><g fill="#000000" fill-opacity="1"><g transform="translate(249.672308, 256.88732)"><g><path d="M 2.46875 0 L 2.46875 -5.609375 L 0.3125 -5.609375 L 0.3125 -6.375 L 5.421875 -6.375 L 5.421875 -5.609375 L 3.265625 -5.609375 L 3.265625 0 Z M 2.46875 0 "/></g></g></g><g fill="#000000" fill-opacity="1"><g transform="translate(262.71272, 256.88732)"><g><path d="M 5.109375 0 L 5.109375 -2.875 L 1.734375 -2.875 L 1.734375 0 L 0.921875 0 L 0.921875 -6.375 L 1.734375 -6.375 L 1.734375 -3.640625 L 5.109375 -3.640625 L 5.109375 -6.375 L 5.90625 -6.375 L 5.90625 0 Z M 5.109375 0 "/></g></g></g></svg>